<?xml version="1.0" standalone="no"?>
<!DOCTYPE svg PUBLIC "-//W3C//DTD SVG 20010904//EN"
 "http://www.w3.org/TR/2001/REC-SVG-20010904/DTD/svg10.dtd">
<svg version="1.0" xmlns="http://www.w3.org/2000/svg"
 width="318.000000pt" height="328.000000pt" viewBox="0 0 318.000000 328.000000"
 preserveAspectRatio="xMidYMid meet">

<g transform="translate(0.000000,328.000000) scale(0.100000,-0.100000)"
fill="#62A6EB" stroke="none">
<path d="M1385 3273 c-147 -19 -392 -108 -547 -199 -334 -196 -592 -560 -676
-955 -46 -212 -50 -351 -16 -549 41 -244 146 -474 319 -695 97 -124 266 -264
415 -344 l80 -42 0 75 0 75 -92 63 c-254 174 -439 418 -527 698 -45 143 -56
218 -56 405 0 186 12 262 67 435 139 434 496 753 968 866 144 35 374 37 528 5
520 -108 910 -505 1029 -1046 24 -111 28 -321 9 -452 -18 -120 -75 -302 -128
-407 -92 -182 -279 -395 -445 -506 l-83 -55 0 -72 c0 -40 2 -73 5 -73 3 0 29
12 58 26 249 126 488 383 622 667 87 186 110 273 135 508 10 89 9 131 -5 248
-40 356 -197 683 -445 929 -119 118 -197 174 -345 247 -249 122 -393 156 -665
153 -96 0 -188 -3 -205 -5z"/>
<path d="M425 3206 c-39 -17 -55 -37 -61 -78 -5 -27 -1 -41 21 -66 22 -26 34
-32 66 -32 50 0 85 23 99 64 25 77 -51 145 -125 112z"/>
<path d="M2687 3157 c-10 -6 -20 -29 -24 -50 -7 -48 16 -77 63 -77 40 0 64 29
64 77 0 51 -61 81 -103 50z"/>
<path d="M230 2920 c-24 -24 -25 -38 -4 -68 29 -42 104 -22 104 27 0 55 -61
80 -100 41z"/>
<path d="M1489 2886 c-157 -56 -223 -238 -142 -388 48 -88 125 -130 239 -130
110 0 177 37 242 135 30 45 42 162 23 220 -18 52 -88 126 -146 153 -57 27
-156 32 -216 10z"/>
<path d="M821 2638 c-70 -37 -86 -66 -86 -152 0 -64 3 -77 28 -109 37 -49 75
-67 140 -67 96 0 166 74 167 174 0 131 -135 215 -249 154z"/>
<path d="M2200 2637 c-74 -39 -106 -106 -94 -194 8 -54 69 -119 121 -129 79
-15 158 18 201 84 27 41 23 137 -7 186 -45 72 -141 95 -221 53z"/>
<path d="M1510 2178 c0 -150 60 -453 82 -414 27 49 78 346 78 458 l0 38 -80 0
-80 0 0 -82z"/>
<path d="M1297 2226 c-32 -14 -77 -37 -100 -52 -63 -41 -154 -138 -182 -194
-54 -107 -58 -139 -62 -505 -3 -315 -2 -337 12 -305 18 40 46 72 90 103 24 18
49 23 130 27 l100 5 8 50 c10 61 50 107 116 132 55 22 279 24 349 4 66 -19
111 -66 126 -131 l12 -55 95 -5 c61 -4 105 -12 127 -23 35 -19 92 -90 93 -116
0 -12 3 -11 9 4 5 11 9 147 9 303 1 392 -15 465 -137 602 -63 71 -147 129
-230 160 -63 24 -67 22 -77 -49 -15 -115 -102 -489 -118 -509 -7 -9 -32 -12
-80 -10 l-69 3 -34 115 c-41 136 -79 297 -94 398 -7 42 -17 72 -23 72 -7 0
-38 -11 -70 -24z"/>
<path d="M720 2188 c-65 -33 -124 -96 -151 -164 -24 -59 -24 -61 -24 -454 l0
-395 65 -85 c72 -95 200 -230 217 -230 9 0 13 126 15 493 3 485 4 493 27 562
33 100 63 153 116 213 26 29 45 56 41 60 -8 8 -129 21 -206 21 -38 1 -69 -6
-100 -21z"/>
<path d="M2280 2203 c-87 -8 -120 -15 -120 -25 0 -5 16 -29 36 -51 42 -50 96
-158 120 -242 16 -53 18 -116 18 -542 1 -265 3 -484 6 -487 9 -8 116 101 206
209 l82 101 4 394 3 395 -27 57 c-33 70 -106 150 -162 178 -40 19 -77 22 -166
13z"/>
<path d="M1503 1402 c-90 -10 -107 -29 -111 -132 l-4 -80 -133 0 c-126 0 -133
-1 -158 -24 -35 -32 -40 -58 -35 -182 3 -78 7 -107 18 -114 8 -6 97 -10 197
-10 l181 0 20 34 c28 47 74 70 129 63 48 -5 77 -26 100 -71 l15 -29 191 7
c105 3 195 10 200 15 5 5 7 66 5 136 l-3 127 -32 28 c-31 28 -33 28 -151 27
-66 -1 -124 1 -128 5 -3 4 -9 39 -12 77 -4 60 -8 73 -33 97 -26 25 -37 28
-111 30 -46 1 -111 -1 -145 -4z m165 -92 l43 0 -3 -57 -3 -58 -115 0 -115 0
-3 54 c-2 36 1 57 10 63 7 5 42 7 78 4 36 -3 84 -6 108 -6z"/>
<path d="M1555 847 c-15 -11 -17 -23 -13 -66 5 -55 18 -71 54 -71 32 0 44 20
44 75 0 28 -5 56 -12 63 -16 16 -50 15 -73 -1z"/>
<path d="M2878 768 c-29 -22 -32 -61 -7 -92 17 -22 27 -26 47 -21 68 17 69
104 2 120 -14 3 -32 0 -42 -7z"/>
<path d="M1064 746 c-3 -8 -4 -75 -2 -150 3 -134 3 -135 33 -166 16 -16 45
-35 65 -40 27 -7 432 -8 862 0 16 0 41 13 62 34 l36 33 0 151 0 151 -190 -2
-190 -2 0 -28 c0 -89 -112 -152 -207 -116 -44 16 -83 59 -83 90 0 60 4 59
-196 59 -151 0 -186 -3 -190 -14z"/>
<path d="M2629 561 c-21 -22 -29 -39 -29 -66 0 -44 45 -95 83 -95 100 0 153
96 88 161 -23 23 -38 29 -71 29 -33 0 -48 -6 -71 -29z"/>
<path d="M505 520 c-35 -39 7 -99 61 -86 14 4 30 17 36 31 25 56 -54 102 -97
55z"/>
<path d="M722 374 c-42 -29 -18 -104 34 -104 34 0 57 25 57 60 0 53 -46 76
-91 44z"/>
<path d="M2392 378 c-22 -28 -22 -55 -1 -82 17 -22 27 -26 48 -21 73 17 66
115 -8 115 -16 0 -33 -6 -39 -12z"/>
</g>
</svg>
